<svg width="48" height="48" viewBox="0 0 48 48" fill="none" xmlns="http://www.w3.org/2000/svg">
<rect width="48" height="48" rx="14" fill="#F3F4F6"/>
<path d="M29 34V29M29 19V14M19 34V31M19 17V14M18 17H20C21.1046 17 22 17.8954 22 19V29C22 30.1046 21.1046 31 20 31H18C16.8954 31 16 30.1046 16 29V19C16 17.8954 16.8954 17 18 17ZM28 19H30C31.1046 19 32 19.8954 32 21V27C32 28.1046 31.1046 29 30 29H28C26.8954 29 26 28.1046 26 27V21C26 19.8954 26.8954 19 28 19Z" stroke="#99A1AF" stroke-width="2" stroke-linecap="round" stroke-linejoin="round"/>
</svg>
