<svg width="28" height="30" viewBox="0 0 28 30" fill="none" xmlns="http://www.w3.org/2000/svg">
<path d="M0.5 14.4189C0.544546 14.0449 0.76979 13.7179 1.10352 13.5459L7.61523 10.3135C8.23937 10.0074 8.67163 9.41414 8.77637 8.73047V8.72656L9.82812 1.47852V1.47754C9.88885 1.05249 10.1816 0.696365 10.5859 0.553711C10.9848 0.424957 11.4219 0.537883 11.71 0.844727L11.7119 0.84668L16.874 6.30078L16.8789 6.30469C17.3595 6.80053 18.0533 7.02763 18.7334 6.91504L18.7412 6.91406L25.916 5.61816C26.3305 5.54375 26.75 5.7185 26.9902 6.06641L26.998 6.07715C27.2482 6.41941 27.2796 6.87614 27.0781 7.25195L27.0752 7.25684L23.707 13.7158C23.5512 14.0098 23.4684 14.3338 23.459 14.6621V15.1084L23.4648 15.1455C23.4931 15.335 23.5532 15.5228 23.6475 15.6973L27.0283 22.1504C27.1416 22.376 27.1812 22.6306 27.1416 22.8799C27.0241 23.4671 26.4641 23.8586 25.8711 23.7666L18.6963 22.4688L18.6875 22.4678C18.004 22.3556 17.309 22.582 16.8232 23.0752L16.8203 23.0781L11.7158 28.3447V28.3438C11.4234 28.6451 10.9855 28.7495 10.5908 28.6123L10.5869 28.6113C10.1852 28.4753 9.89292 28.1279 9.82715 27.71L9.82617 27.7109L8.7793 20.4893C8.70483 19.7675 8.26561 19.1338 7.61719 18.8096L7.61328 18.8076L1.07129 15.6172C0.976268 15.5672 0.892334 15.5051 0.822266 15.4346L0.745117 15.333L0.717773 15.2988L0.685547 15.2695C0.656954 15.2437 0.632141 15.2131 0.609375 15.1787L0.571289 15.0742L0.568359 15.0654L0.564453 15.0557L0.5 14.9004V14.4189Z" fill="#E1E657" stroke="#272322"/>
</svg>
